<svg xmlns="http://www.w3.org/2000/svg" width="270" height="120" fill="none"><defs><clipPath id="a"><path fill="#fff" fill-opacity="0" d="M100 25h70v70h-70z"/></clipPath></defs><rect width="270" height="120" fill="#F5F4FA" rx="4"/><path fill="none" d="M100 25h70v70h-70z"/><g clip-path="url(#a)"><path fill="#212121" d="m167.31 73.33-18.47-18.6 2.05-10.1c.53.21 1.09.32 1.66.32h.02a4.72 4.72 0 0 0 .11-9.44 4.716 4.716 0 0 0-4.78 4.66c-.01.56.08 1.12.27 1.64l-10.85 1.33-17.7-17.79c-.21-.23-.51-.35-.82-.35-.31 0-.6.12-.82.33l-3.31 3.29c-.45.46-.45 1.2 0 1.65l1.78 1.81c-6.89 12.68-4.65 28.39 5.52 38.64.09.09.2.16.32.21-.08.4-.12.8-.12 1.2v13.53h-14a5.845 5.845 0 0 0-5.83 5.84v2.33c0 .64.52 1.17 1.16 1.17h53.67c.65 0 1.17-.53 1.17-1.17V91.5a5.86 5.86 0 0 0-5.84-5.84h-14v-6c2.2.46 4.43.7 6.67.7 5.38 0 10.67-1.34 15.4-3.9l1.79 1.8c.22.22.52.35.83.35.3 0 .6-.12.81-.34l3.31-3.29c.46-.45.46-1.19 0-1.65Zm-16.39-34.7c.91-.91 2.39-.9 3.3.01.91.91.9 2.39-.01 3.3-.44.43-1.03.68-1.65.68a2.335 2.335 0 0 1-2.32-2.35c0-.61.25-1.21.68-1.64Zm-2.75 7.67-1.31 6.44-2.57-2.59 3.88-3.85Zm-1.32-1.98-4.2 4.18-3.25-3.27 7.45-.91ZM152.5 88c1.94 0 3.5 1.56 3.5 3.5v1.16h-51.33V91.5c0-1.94 1.57-3.5 3.5-3.5h44.33Zm-16.33-4.67v2.33H124.5v-2.33h11.67ZM124.5 81v-8.87c0-2.83 2.62-5.13 5.84-5.13 3.21 0 5.83 2.3 5.83 5.13V81H124.5Zm14-3.71v-5.16c0-4.12-3.66-7.47-8.16-7.47a8.328 8.328 0 0 0-7.18 3.91 30.33 30.33 0 0 1-4.98-34.75l40.69 40.92c-6.29 3.2-13.49 4.1-20.37 2.55Zm24.7-1.5-1.64-1.65-42.77-43.03-1.65-1.65 1.65-1.65 17.35 17.46c.01 0 .02.01.03.02l28.68 28.85-1.65 1.65Z"/><path fill="#2196F3" d="M130.35 69.33h-.01a3.5 3.5 0 1 0-.01 7h.01c1.93 0 3.5-1.56 3.5-3.5.01-1.93-1.56-3.5-3.49-3.5Zm.81 4.33c-.21.21-.51.34-.82.34-.65-.01-1.17-.53-1.16-1.18 0-.31.12-.6.34-.82.22-.21.51-.34.82-.34.64.01 1.16.53 1.16 1.17 0 .31-.13.61-.35.83h.01Z"/></g></svg>