<svg xmlns="http://www.w3.org/2000/svg" width="270" height="120" fill="none"><defs><clipPath id="a"><path fill="#fff" fill-opacity="0" d="M100 25h70v70h-70z"/></clipPath></defs><rect width="270" height="120" fill="#F5F4FA" rx="4"/><path fill="none" d="M100 25h70v70h-70z"/><g clip-path="url(#a)"><path fill="#2196F3" d="M169.94 34.89c-.14-.42-.5-.73-.94-.79l-4.18-.61-1.87-3.79c-.39-.79-1.7-.79-2.09 0l-1.87 3.79-4.18.61c-.44.06-.81.37-.95.79-.13.42-.02.89.3 1.2l3.02 2.95-.71 4.16a1.166 1.166 0 0 0 1.69 1.23l3.74-1.97 3.74 1.97c.17.09.36.13.54.13a1.157 1.157 0 0 0 1.15-1.36l-.71-4.16 3.02-2.95c.32-.31.44-.78.3-1.2Zm-5.39 2.9c-.27.27-.4.66-.33 1.04l.41 2.43-2.18-1.15c-.18-.09-.36-.13-.55-.13-.19 0-.37.04-.54.13l-2.19 1.15.42-2.43c.06-.38-.06-.77-.34-1.04l-1.77-1.72 2.45-.36c.38-.05.71-.29.88-.64l1.09-2.21 1.09 2.21c.17.35.5.59.88.64l2.45.36-1.77 1.72Z"/><path fill="#2196F3" fill-rule="evenodd" d="M154.83 69.89h2.33v2.33h-2.33v-2.33ZM154.83 74.55h2.33v2.34h-2.33v-2.34ZM157.16 72.22h2.34v2.33h-2.34v-2.33ZM152.5 72.22h2.33v2.33h-2.33v-2.33ZM146.66 82.72H149v2.33h-2.34v-2.33ZM146.66 87.39H149v2.33h-2.34v-2.33ZM149 85.05h2.33v2.34H149v-2.34ZM144.33 85.05h2.33v2.34h-2.33v-2.34ZM132.66 78.05H135v2.34h-2.34v-2.34ZM132.66 82.72H135v2.33h-2.34v-2.33ZM135 80.39h2.33v2.33H135v-2.33ZM130.33 80.39h2.33v2.33h-2.33v-2.33ZM110.5 38.39h2.33v2.33h-2.33v-2.33ZM110.5 43.05h2.33v2.34h-2.33v-2.34ZM112.83 40.72h2.33v2.33h-2.33v-2.33ZM108.16 40.72h2.34v2.33h-2.34v-2.33Z"/><path fill="#212121" d="M154.06 55.97c-.63-.85-1.55-1.4-2.6-1.54-1.05-.15-2.09.12-2.93.77l-2.74 2.1-4.15 3.1-2.97-1.19c5.29-2.37 9-7.67 9-13.82 0-8.36-6.83-15.17-15.23-15.17s-15.23 6.81-15.23 15.17c0 3.03.91 5.85 2.45 8.22l-6.04-.05h-.01c-.02 0-.04.01-.06.01-.11 0-.22.03-.34.07-.02.01-.05.01-.08.03-.01 0-.03 0-.04.01l-7.07 3.49h-.01l-4.14 1.99c-.04.02-.09.05-.14.08a3.886 3.886 0 0 0-1.3 5.02 3.91 3.91 0 0 0 3.48 2.13c.64 0 1.27-.16 1.84-.46l3.04-1.62 4.95-2.56 2.97-.01-11.91 11.84v.01l-2.93 2.91c-.69.69-1.07 1.6-1.07 2.58 0 .97.38 1.89 1.07 2.58a3.666 3.666 0 0 0 5.16 0l2.88-2.87 3.81-2.84 1.97 1.96-3.86 3.84-2.93 2.92c-.69.69-1.07 1.6-1.07 2.58 0 .97.38 1.88 1.07 2.57.71.71 1.65 1.07 2.58 1.07.94 0 1.87-.36 2.58-1.07l2.93-2.91 4.69-4.67 2.21-2.19-.01-.01c.02-.01.04-.02.05-.03l11.3-12.38 7.59 1.08c.06.01.11.01.17.01.14 0 .28-.03.41-.08.04-.02.07-.03.11-.05l.12-.06 7.03-4.67c.03-.02.04-.04.07-.06.02-.03.06-.03.08-.06l2.79-2.6a3.908 3.908 0 0 0 .46-5.17Zm-49.4 7.9a1.6 1.6 0 0 1-2.16-.67c-.35-.69-.15-1.52.47-1.98l2.87-1.38.7 2.02.29.85-2.17 1.16Zm7.65-4-3.39 1.75-.56-1.63-.4-1.18 4.43-2.19-.08 3.25Zm33.03-14.48c0 2.01-.48 3.9-1.31 5.6l-9.15-4.16c-.1-1.25-.75-2.35-1.73-3.03l3.21-10.64c5.2 1.66 8.98 6.51 8.98 12.23Zm-25.79 0c0-7.08 5.78-12.84 12.89-12.84.55 0 1.09.05 1.63.12l-3.13 10.4c-.04 0-.08-.02-.13-.02-2.25 0-4.09 1.84-4.09 4.09s1.84 4.08 4.09 4.08c1.52 0 2.83-.84 3.54-2.07l8.45 3.84c-2.35 3.17-6.11 5.23-10.36 5.23-7.11 0-12.89-5.76-12.89-12.83Zm13.03 1.75c0 .96-.8 1.75-1.77 1.75s-1.76-.79-1.76-1.75c0-.97.79-1.75 1.76-1.75s1.77.78 1.77 1.75ZM105.39 80c-.52.51-1.36.51-1.87 0a1.27 1.27 0 0 1-.39-.92c0-.35.14-.68.39-.92l2.1-2.1 1.86 1.85-2.09 2.09Zm7.03 8.17c-.52.51-1.36.51-1.87 0-.25-.25-.39-.58-.39-.92 0-.35.14-.68.39-.93l2.1-2.09.88.87.99.98-2.1 2.09Zm7.61-7.59-3.86 3.85-.88-.87-.98-.98 3.85-3.84h.01c.08-.09.14-.2.19-.3.02-.03.05-.06.06-.09.04-.09.04-.18.06-.28 0-.05.03-.1.03-.16 0-.08-.03-.15-.05-.23-.01-.07-.01-.14-.04-.21-.04-.11-.12-.2-.2-.3-.02-.02-.03-.06-.05-.08-.01 0-.01 0-.01-.01l-3.51-3.5c-.04-.03-.09-.05-.13-.08-.06-.05-.12-.09-.19-.13-.07-.03-.13-.05-.2-.07-.08-.02-.15-.03-.23-.04-.07 0-.14 0-.21.01-.08.01-.15.02-.22.04-.08.03-.14.06-.21.1-.04.03-.09.04-.13.07l-3.88 2.89-1.97-1.96 5.24-5.22 9.54 9.38-2.03 2.01Zm14.92-15.35c-.03 0-.07.01-.1.01-.08-.01-.17 0-.25.01-.07.01-.13.03-.19.05-.08.03-.15.06-.21.1-.07.04-.13.08-.19.14-.02.02-.06.03-.09.06l-10.27 11.26-9.47-9.31 6.2-6.17a1.165 1.165 0 0 0-.83-1.99l-4.86.03.06-3.52 6.79.06c2.77 2.83 6.63 4.59 10.9 4.59.96 0 1.89-.1 2.8-.26.09.07.17.14.28.18l5.28 2.1.33 1.66.39 1.94-6.57-.94Zm8.84.39-.68-3.41 3.16-2.36.83 1.1 1.24 1.65-4.55 3.02Zm8.21-6.19-1.83 1.72-2.04-2.71 1.82-1.39c.34-.26.77-.37 1.19-.31a1.563 1.563 0 0 1 .86 2.69Z"/><path fill="#212121" d="m129.75 65.56-4.69-4.67c-.45-.45-1.19-.45-1.64 0l-4.69 4.67c-.22.22-.34.52-.34.83 0 .31.12.61.34.82l4.69 4.67c.22.23.52.34.82.34.3 0 .6-.11.82-.34l4.69-4.67c.22-.21.34-.51.34-.82 0-.31-.12-.61-.34-.83Zm-5.51 3.85-3.03-3.02 3.03-3.02 3.03 3.02-3.03 3.02ZM137.54 36.09l-.56 2.26c.15.04 3.8.99 3.8 4.7h2.33c0-4.41-3.64-6.48-5.57-6.96Z"/><path fill="#212121" fill-rule="evenodd" d="M140.78 45.39h2.33v2.33h-2.33v-2.33Z"/></g></svg>