<svg xmlns="http://www.w3.org/2000/svg" width="270" height="120" fill="none"><defs><clipPath id="a"><path fill="#fff" fill-opacity="0" d="M100 25h70v70h-70z"/></clipPath></defs><rect width="270" height="120" fill="#F5F4FA" rx="4"/><path fill="none" d="M100 25h70v70h-70z"/><g clip-path="url(#a)"><path fill="#212121" d="M168.46 58.47c-.01-18.49-15-33.48-33.49-33.47-18.49 0-33.47 14.99-33.47 33.48 0 14.57 9.42 27.46 23.3 31.89.13.04.27.06.4.06.27 0 .53-.07.75-.21.3-.17.52-.45.62-.78l8.46-26.79c2.31-.01 4.17-1.9 4.16-4.21a4.18 4.18 0 0 0-4.21-4.16c-.62 0-1.23.14-1.79.42l-11.17-11.17c-.55-.54-1.44-.52-1.97.03-.52.54-.52 1.4 0 1.94l11.16 11.17a4.116 4.116 0 0 0 1.18 5.06l-8.06 25.53c-15.92-5.86-24.07-23.52-18.21-39.44 5.87-15.92 23.52-24.08 39.45-18.21 15.92 5.86 24.07 23.52 18.2 39.44a30.682 30.682 0 0 1-16.32 17.44l-.87-4.1c-.16-.75-.9-1.23-1.65-1.07-.24.05-.46.16-.64.32l-8.4 7.5c-.57.51-.62 1.39-.11 1.97.17.18.38.32.62.4l10.71 3.42c.74.23 1.52-.17 1.76-.9.07-.24.09-.48.04-.72l-.86-4.02c12.39-5.23 20.44-17.38 20.41-30.82Zm-33.48-1.4c.77 0 1.39.63 1.39 1.4 0 .77-.62 1.39-1.39 1.39-.77 0-1.4-.62-1.4-1.39 0-.77.63-1.4 1.4-1.4Zm4.59 32.52 4.78-4.27 1.32 6.22-6.1-1.95Z"/><path fill="#2196F3" d="M133.58 31.96v2.79c0 .77.63 1.4 1.4 1.4.77 0 1.39-.63 1.39-1.4v-2.79c0-.77-.62-1.39-1.39-1.39-.77 0-1.4.62-1.4 1.39ZM108.47 57.07c-.77 0-1.39.63-1.39 1.4 0 .77.62 1.39 1.39 1.39h2.79c.77 0 1.4-.62 1.4-1.39 0-.77-.63-1.4-1.4-1.4h-2.79ZM161.48 59.86c.77 0 1.4-.62 1.4-1.39 0-.77-.63-1.4-1.4-1.4h-2.79c-.77 0-1.39.63-1.39 1.4 0 .77.62 1.39 1.39 1.39h2.79Z"/></g></svg>