<svg xmlns="http://www.w3.org/2000/svg" width="270" height="120" fill="none"><defs><clipPath id="a"><path fill="#fff" fill-opacity="0" d="M100 25h70v70h-70z"/></clipPath></defs><rect width="270" height="120" fill="#F5F4FA" rx="4"/><path fill="none" d="M100 25h70v70h-70z"/><g clip-path="url(#a)"><path fill="#2196F3" d="M132.64 57.73h2.34v10.49h-2.34V57.73ZM141.97 62.39h2.34v5.83h-2.34v-5.83ZM123.32 65.89h2.33v2.33h-2.33v-2.33ZM116.32 64.73h2.33v3.49h-2.33v-3.49Z"/><path fill="#212121" d="M103.49 86.88h55.97c1.94 0 3.5-1.56 3.5-3.5v-4.66c0-1.93-1.56-3.5-3.5-3.5h-1.16V46.14l6.62-6.27c1.54.76 3.4.3 4.41-1.09 1-1.39.86-3.3-.34-4.53a3.51 3.51 0 0 0-4.51-.43 3.513 3.513 0 0 0-1.19 4.38l-4.99 4.73v-2.69c0-1.93-1.57-3.5-3.5-3.5h-46.64c-1.93 0-3.5 1.57-3.5 3.5v34.98h-1.17c-1.93 0-3.49 1.57-3.49 3.5v4.66c0 1.94 1.56 3.5 3.49 3.5Zm62.97-51.3c.64 0 1.17.52 1.17 1.16 0 .65-.53 1.17-1.17 1.17-.64 0-1.17-.52-1.17-1.17 0-.64.53-1.16 1.17-1.16Zm-59.47 4.66c0-.64.52-1.17 1.17-1.17h46.64c.64 0 1.17.53 1.17 1.17v4.9l-2.34 2.21v-4.78c0-.64-.52-1.16-1.16-1.16h-41.98c-.64 0-1.17.52-1.17 1.16v29.15c0 .65.53 1.17 1.17 1.17h41.98c.64 0 1.16-.52 1.16-1.17V50.56l2.34-2.21v26.87h-48.98V40.24Zm10.5 15.16a3.49 3.49 0 0 0-3.39 2.57 3.48 3.48 0 0 0 1.59 3.93c1.36.81 3.08.61 4.22-.49l4.05 2.03c.47.24 1.04.13 1.39-.26l8.62-9.7 8.47 6.35c.45.34 1.09.3 1.5-.09l7.36-6.97v17.79h-39.64V43.74h39.64v5.82l-8.25 7.81-8.54-6.4a1.16 1.16 0 0 0-1.57.15l-8.73 9.83-3.27-1.63c.02-.14.04-.28.04-.42 0-1.94-1.56-3.5-3.49-3.5Zm1.16 3.5c0 .64-.52 1.16-1.16 1.16a1.165 1.165 0 1 1 1.16-1.16Zm7 18.65h11.66v1.17c0 .64-.52 1.17-1.17 1.17h-9.33c-.64 0-1.16-.53-1.16-1.17v-1.17Zm-23.32 1.17c0-.64.52-1.17 1.16-1.17h19.83v1.17c0 1.93 1.56 3.5 3.49 3.5h9.33c1.94 0 3.5-1.57 3.5-3.5v-1.17h19.82c.65 0 1.17.53 1.17 1.17v4.66c0 .65-.52 1.17-1.17 1.17h-55.97c-.64 0-1.16-.52-1.16-1.17v-4.66Z"/></g></svg>